# xmcd CD database file
#
# Track frame offsets:
#	150
#	15196
#	31201
#	48345
#	62461
#	77611
#	91861
#	111474
#	125215
#
# Disc length: 1875 seconds
#
# Revision: 0
# Processed by: cddbd v1.5.2PL0 Copyright (c) Steve Scherf et al.
# Submitted via: CDex 1.70beta2
#
DISCID=66075109
DTITLE=Mama Juju - Mama Juju
DYEAR=2011
DGENRE=Jazz
TTITLE0=He May Be Your Man
TTITLE1=Keep It To Yourself
TTITLE2=Autumn Leaves
TTITLE3=Sweetheart
TTITLE4=Undecided
TTITLE5=Bad Attitude
TTITLE6=May You Never
TTITLE7=Big Bad Handsome Man
TTITLE8=In These Shoes
EXTD=YEAR: 2011
EXTT0=
EXTT1=
EXTT2=
EXTT3=
EXTT4=
EXTT5=
EXTT6=
EXTT7=
EXTT8=
PLAYORDER=
